<?xml version="1.0" encoding="UTF-8" standalone="no"?>
<svg
   xmlns:dc="http://purl.org/dc/elements/1.1/"
   xmlns:cc="http://creativecommons.org/ns#"
   xmlns:rdf="http://www.w3.org/1999/02/22-rdf-syntax-ns#"
   xmlns:svg="http://www.w3.org/2000/svg"
   xmlns="http://www.w3.org/2000/svg"
   xmlns:sodipodi="http://sodipodi.sourceforge.net/DTD/sodipodi-0.dtd"
   xmlns:inkscape="http://www.inkscape.org/namespaces/inkscape"
   id="Bold"
   enable-background="new 0 0 24 24"
   height="512"
   viewBox="0 0 24 24"
   width="512"
   version="1.1"
   sodipodi:docname="rs.svg"
   inkscape:version="1.0.2-2 (e86c870879, 2021-01-15)">
  <metadata
     id="metadata9">
    <rdf:RDF>
      <cc:Work
         rdf:about="">
        <dc:format>image/svg+xml</dc:format>
        <dc:type
           rdf:resource="http://purl.org/dc/dcmitype/StillImage" />
        <dc:title></dc:title>
      </cc:Work>
    </rdf:RDF>
  </metadata>
  <defs
     id="defs7" />
  <sodipodi:namedview
     pagecolor="#ffffff"
     bordercolor="#666666"
     borderopacity="1"
     objecttolerance="10"
     gridtolerance="10"
     guidetolerance="10"
     inkscape:pageopacity="0"
     inkscape:pageshadow="2"
     inkscape:window-width="1920"
     inkscape:window-height="986"
     id="namedview5"
     showgrid="false"
     inkscape:zoom="0.78125"
     inkscape:cx="499.62949"
     inkscape:cy="222.52364"
     inkscape:window-x="-11"
     inkscape:window-y="-11"
     inkscape:window-maximized="1"
     inkscape:current-layer="Bold"
     inkscape:document-rotation="0" />
  <g
     id="g1235"
     transform="matrix(0.79328554,0,0,0.79328554,296.42619,8.625127)"
     style="fill:#ffffff">
    <path
       d="m -358.61492,-8.6144802 12.39647,7.95000008 h -24.79278 z m -14.49293,9.17875554 h 28.98578 c 0.002,0 0.004,0 0.007,0 0.33939,0 0.6145,-0.27498443 0.6145,-0.61436673 0,-0.24061687 -0.13826,-0.4487596 -0.33929,-0.55001288 l -14.44252,-9.26125083 c -0.20233,-0.1298966 -0.4612,-0.1298966 -0.66344,0 l -14.49295,9.29376901 c -0.22944,0.14750966 -0.33457,0.42810825 -0.25801,0.68999294 0.0768,0.26188469 0.31719,0.44186849 0.58964,0.44186849"
       style="fill:#ffffff;fill-opacity:1;fill-rule:nonzero;stroke:none;stroke-width:0.00625001"
       id="path877" />
    <path
       d="m -348.67558,15.209915 h -1.10062 V 2.9455436 h 1.10062 z m -2.32962,0 h -2.69864 V 2.9455436 h 2.69864 z m -3.92763,0 h -1.10058 V 2.9455436 h 1.10058 z m -2.32958,0 h -2.69887 V 2.9455436 h 2.69887 z m -3.92787,0 h -1.10089 V 2.9455436 h 1.10089 z m -2.32988,0 h -2.69857 V 2.9455436 h 2.69857 z m -3.92757,0 h -1.10088 V 2.9455436 h 1.10088 z m 21.2199,-12.2643714 c 0.33963,0 0.6145,-0.2750065 0.6145,-0.6143888 0,-0.3393823 -0.27487,-0.6150052 -0.6145,-0.6150052 h -24.73472 c -0.33899,0 -0.6145,0.2756229 -0.6145,0.6150052 0,0.3393823 0.27551,0.6143888 0.6145,0.6143888 h 1.18494 V 15.209915 h -1.18494 c -0.33899,0 -0.6145,0.275006 -0.6145,0.614389 0,0.33936 0.27551,0.614366 0.6145,0.614366 h 24.73472 c 0.33963,0 0.6145,-0.275006 0.6145,-0.614366 0,-0.339383 -0.27487,-0.614389 -0.6145,-0.614389 h -1.21876 V 2.9455436 h 1.21876"
       style="fill:#ffffff;fill-opacity:1;fill-rule:nonzero;stroke:none;stroke-width:0.00625001"
       id="path879" />
    <path
       d="m -343.5472,17.783056 c 0,-0.339382 -0.27481,-0.615005 -0.61443,-0.615005 h -28.94622 c -0.33907,0 -0.6145,0.275623 -0.6145,0.615005 0,0.338744 0.27543,0.614367 0.6145,0.614367 h 28.94622 c 0.33962,0 0.61443,-0.275623 0.61443,-0.614367"
       style="fill:#ffffff;fill-opacity:1;fill-rule:nonzero;stroke:none;stroke-width:0.00625001"
       id="path881" />
  </g>
</svg>
